<svg xmlns="http://www.w3.org/2000/svg" viewBox="0 0 64 64" width="64" height="64">
  <!-- semscope: a scope looking at a spectral element — GLL-spaced grid lines
       (dense towards the edges) on a gently curved element, nodes at the crossings -->
  <defs>
    <linearGradient id="rim" x1="0" y1="0" x2="1" y2="1">
      <stop offset="0" stop-color="#5cc8ff"/>
      <stop offset="0.55" stop-color="#8f7bff"/>
      <stop offset="1" stop-color="#ff7eb6"/>
    </linearGradient>
    <radialGradient id="lens" cx="0.38" cy="0.32" r="0.8">
      <stop offset="0" stop-color="#24397a"/>
      <stop offset="1" stop-color="#0a0c17"/>
    </radialGradient>
    <clipPath id="clip"><circle cx="28" cy="28" r="21"/></clipPath>
  </defs>
  <path d="M43.5 43.5 L57.5 57.5" stroke="url(#rim)" stroke-width="7.5" stroke-linecap="round"/>
  <circle cx="28" cy="28" r="21" fill="url(#lens)"/>
  <g clip-path="url(#clip)" fill="none" stroke="#7fd4ff" stroke-opacity="0.9" stroke-width="1.7">
    <path d="M14.25 4 Q 11 28 14.25 52"/>
    <path d="M28 4 L 28 52"/>
    <path d="M41.75 4 Q 45 28 41.75 52"/>
    <path d="M4 14.25 Q 28 11 52 14.25"/>
    <path d="M4 28 L 52 28"/>
    <path d="M4 41.75 Q 28 45 52 41.75"/>
  </g>
  <g fill="#ffd166">
    <circle cx="13.2" cy="13.2" r="2"/><circle cx="28" cy="12.6" r="2"/><circle cx="42.8" cy="13.2" r="2"/>
    <circle cx="12.6" cy="28" r="2"/><circle cx="28" cy="28" r="2.3"/><circle cx="43.4" cy="28" r="2"/>
    <circle cx="13.2" cy="42.8" r="2"/><circle cx="28" cy="43.4" r="2"/><circle cx="42.8" cy="42.8" r="2"/>
  </g>
  <circle cx="28" cy="28" r="21" fill="none" stroke="url(#rim)" stroke-width="4.5"/>
  <ellipse cx="18.5" cy="16.5" rx="6.5" ry="3.2" fill="#ffffff" fill-opacity="0.16" transform="rotate(-38 18.5 16.5)"/>
</svg>
